<svg width="86" height="75" viewBox="0 0 86 75" fill="none" xmlns="http://www.w3.org/2000/svg">
<path d="M11.8863 27.598C10.9063 27.598 9.8283 27.262 8.8623 26.296L9.9823 24.84C10.4023 25.246 11.0323 25.862 11.8583 25.862C12.5443 25.862 12.9503 25.414 12.9503 24.854C12.9503 24.42 12.7263 24.084 11.6203 23.426C10.1363 22.544 9.2683 21.774 9.2683 20.402V20.374C9.2683 18.722 10.4723 17.602 12.2223 17.602C13.0623 17.602 14.0843 17.91 14.8683 18.736L13.7203 20.178C13.3703 19.8 12.8243 19.338 12.1383 19.338C11.5783 19.338 11.1583 19.674 11.1583 20.192C11.1583 20.654 11.3823 20.99 12.7403 21.83C14.1263 22.684 14.8403 23.44 14.8403 24.742V24.77C14.8403 26.45 13.5383 27.598 11.8863 27.598Z" fill="#1D1D1B"/>
<rect x="0.0546875" y="30.2666" width="84.0836" height="16.2743" fill="white"/>
<path d="M20.8869 27.5V17.7H23.3089C25.8709 17.7 27.3969 19.478 27.3969 22.488V22.712C27.3969 25.708 25.8709 27.5 23.3089 27.5H20.8869ZM23.2809 19.408H22.7629V25.792H23.2809C24.5829 25.792 25.4649 24.854 25.4649 22.67V22.53C25.4649 20.346 24.5829 19.408 23.2809 19.408Z" fill="#1D1D1B"/>
<path d="M33.133 27.5V17.7H35.905C36.927 17.7 37.781 17.994 38.355 18.568C38.873 19.086 39.167 19.856 39.167 20.864V20.948C39.167 22.348 38.537 23.216 37.669 23.706L39.391 27.5H37.305L35.835 24.182H35.009V27.5H33.133ZM35.009 22.516H35.751C36.773 22.516 37.291 21.9 37.291 20.962C37.291 19.926 36.731 19.422 35.709 19.422H35.009V22.516Z" fill="#1D1D1B"/>
<path d="M45.6867 27.5V17.7H50.6987V19.45H47.5627V21.774H50.3067V23.524H47.5627V27.5H45.6867Z" fill="#1D1D1B"/>
<path d="M59.9861 27.64C58.1381 27.64 56.8781 26.506 56.8781 24.14V17.7H58.7541V24.238C58.7541 25.372 59.2441 25.904 60.0001 25.904C60.7561 25.904 61.2461 25.386 61.2461 24.252V17.7H63.1081V24.126C63.1081 26.52 61.8481 27.64 59.9861 27.64Z" fill="#1D1D1B"/>
<path d="M71.0596 27.5V19.464H69.1976V17.7H74.7976V19.464H72.9356V27.5H71.0596Z" fill="#1D1D1B"/>
<path d="M21.0851 13.5V3.7H22.9611V7.872L25.2991 3.7H27.4831L24.9631 7.844L27.5671 13.5H25.4111L23.6191 9.622L22.9611 10.728V13.5H21.0851Z" fill="#1D1D1B"/>
<path d="M44.3392 13.5L47.0552 3.658H48.9452L51.6752 13.5H49.7572L49.2252 11.456H46.7052L46.1872 13.5H44.3392ZM47.1532 9.79H48.7772L47.9792 6.57L47.1532 9.79Z" fill="#1D1D1B"/>
<path d="M56.8354 13.542L54.6654 3.7H56.6254L57.8294 9.944L59.1734 3.686H60.8534L62.1974 9.944L63.4014 3.7H65.3194L63.1494 13.542H61.3154L59.9854 7.508L58.6554 13.542H56.8354Z" fill="#1D1D1B"/>
<path d="M8.36733 43.5V33.7H10.2853L12.0073 37.494L13.7153 33.7H15.6473V43.5H13.8133V37.396L12.0073 41.288H11.9793L10.1733 37.424V43.5H8.36733Z" fill="#1D1D1B"/>
<path d="M20.9279 43.5V33.7H22.8039V37.69H25.1979V33.7H27.0739V43.5H25.1979V39.454H22.8039V43.5H20.9279Z" fill="#1D1D1B"/>
<path d="M35.0688 43.5V33.7H36.9308V43.5H35.0688Z" fill="#1D1D1B"/>
<path d="M48.6625 43.612C46.4785 43.612 45.0925 41.904 45.0925 38.712V38.488C45.0925 35.296 46.6605 33.588 48.7745 33.588C49.7965 33.588 50.5245 33.966 51.1125 34.54L50.0485 36.038C49.6845 35.674 49.2645 35.38 48.7605 35.38C47.7945 35.38 47.0105 36.458 47.0105 38.558V38.628C47.0105 40.868 47.8505 41.82 48.7325 41.82C49.2925 41.82 49.6845 41.54 50.1325 41.092L51.1265 42.548C50.3985 43.248 49.6005 43.612 48.6625 43.612Z" fill="#1D1D1B"/>
<path d="M56.3392 43.5L59.0552 33.658H60.9452L63.6752 43.5H61.7572L61.2252 41.456H58.7052L58.1872 43.5H56.3392ZM59.1532 39.79H60.7772L59.9792 36.57L59.1532 39.79Z" fill="#1D1D1B"/>
<path d="M69.133 43.5V33.7H71.905C72.927 33.7 73.781 33.994 74.355 34.568C74.873 35.086 75.167 35.856 75.167 36.864V36.948C75.167 38.348 74.537 39.216 73.669 39.706L75.391 43.5H73.305L71.835 40.182H71.009V43.5H69.133ZM71.009 38.516H71.751C72.773 38.516 73.291 37.9 73.291 36.962C73.291 35.926 72.731 35.422 71.709 35.422H71.009V38.516Z" fill="#1D1D1B"/>
<path d="M12.6625 58.612C10.4785 58.612 9.09254 56.904 9.09254 53.712V53.488C9.09254 50.296 10.6605 48.588 12.7745 48.588C13.7965 48.588 14.5245 48.966 15.1125 49.54L14.0485 51.038C13.6845 50.674 13.2645 50.38 12.7605 50.38C11.7945 50.38 11.0105 51.458 11.0105 53.558V53.628C11.0105 55.868 11.8505 56.82 12.7325 56.82C13.2925 56.82 13.6845 56.54 14.1325 56.092L15.1265 57.548C14.3985 58.248 13.6005 58.612 12.6625 58.612Z" fill="#1D1D1B"/>
<path d="M23.8863 58.598C22.9063 58.598 21.8283 58.262 20.8623 57.296L21.9823 55.84C22.4023 56.246 23.0323 56.862 23.8583 56.862C24.5443 56.862 24.9503 56.414 24.9503 55.854C24.9503 55.42 24.7263 55.084 23.6203 54.426C22.1363 53.544 21.2683 52.774 21.2683 51.402V51.374C21.2683 49.722 22.4723 48.602 24.2223 48.602C25.0623 48.602 26.0843 48.91 26.8683 49.736L25.7203 51.178C25.3703 50.8 24.8243 50.338 24.1383 50.338C23.5783 50.338 23.1583 50.674 23.1583 51.192C23.1583 51.654 23.3823 51.99 24.7403 52.83C26.1263 53.684 26.8403 54.44 26.8403 55.742V55.77C26.8403 57.45 25.5383 58.598 23.8863 58.598Z" fill="#1D1D1B"/>
<path d="M33.6867 58.5V48.7H38.6987V50.45H35.5627V52.774H38.3067V54.524H35.5627V58.5H33.6867Z" fill="#1D1D1B"/>
<path d="M48.5395 58.612C46.3695 58.612 44.6755 56.974 44.6755 53.712V53.488C44.6755 50.464 46.3275 48.588 48.6375 48.588C49.5615 48.588 50.3735 48.882 51.1295 49.512L50.0935 51.052C49.8275 50.744 49.3795 50.366 48.6515 50.366C47.4475 50.366 46.5935 51.528 46.5935 53.488V53.684C46.5935 55.952 47.5595 56.89 48.6655 56.89C48.9875 56.89 49.2955 56.806 49.4635 56.694V54.566H48.1335V52.914H51.2135V57.772C50.4575 58.248 49.6175 58.612 48.5395 58.612Z" fill="#1D1D1B"/>
<path d="M59.0596 58.5V50.464H57.1976V48.7H62.7976V50.464H60.9356V58.5H59.0596Z" fill="#1D1D1B"/>
<path d="M72.8863 58.598C71.9063 58.598 70.8283 58.262 69.8623 57.296L70.9823 55.84C71.4023 56.246 72.0323 56.862 72.8583 56.862C73.5443 56.862 73.9503 56.414 73.9503 55.854C73.9503 55.42 73.7263 55.084 72.6203 54.426C71.1363 53.544 70.2683 52.774 70.2683 51.402V51.374C70.2683 49.722 71.4723 48.602 73.2223 48.602C74.0623 48.602 75.0843 48.91 75.8683 49.736L74.7203 51.178C74.3703 50.8 73.8243 50.338 73.1383 50.338C72.5783 50.338 72.1583 50.674 72.1583 51.192C72.1583 51.654 72.3823 51.99 73.7403 52.83C75.1263 53.684 75.8403 54.44 75.8403 55.742V55.77C75.8403 57.45 74.5383 58.598 72.8863 58.598Z" fill="#1D1D1B"/>
<path d="M11.9923 73.654C9.87829 73.654 8.43629 71.848 8.43629 68.768V68.446C8.43629 65.352 9.89229 63.546 12.0063 63.546C14.1203 63.546 15.5623 65.352 15.5623 68.432V68.754C15.5623 71.834 14.1063 73.654 11.9923 73.654ZM12.0063 71.932C12.9443 71.932 13.6443 70.91 13.6443 68.698V68.516C13.6443 66.304 12.9303 65.268 11.9923 65.268C11.0543 65.268 10.3543 66.29 10.3543 68.502V68.684C10.3543 70.896 11.0683 71.932 12.0063 71.932Z" fill="#1D1D1B"/>
<path d="M33.8302 73.5V63.7H35.7062V71.75H38.6462V73.5H33.8302Z" fill="#1D1D1B"/>
<path d="M70.3244 73.5V63.7H72.7604C74.8044 63.7 76.1484 64.848 76.1484 67.032V67.06C76.1484 69.3 74.7204 70.392 72.8164 70.476H72.2004V73.5H70.3244ZM72.2004 68.768H72.6904C73.7264 68.768 74.2584 68.096 74.2584 67.102C74.2584 66.024 73.7684 65.422 72.7044 65.422H72.2004V68.768Z" fill="#1D1D1B"/>
</svg>
