<svg width="75" height="75" viewBox="0 0 75 75" fill="none" xmlns="http://www.w3.org/2000/svg">
<path d="M62.9512 7C66.2919 7 69 9.68629 69 13V37C69 40.3137 66.2919 43 62.9512 43H21.0976C19.993 43 19.0976 43.8954 19.0976 45V54C19.0976 55.1046 19.993 56 21.0976 56H62.4472C65.7878 56 68.4959 58.6863 68.4959 62C68.4959 65.3137 65.7878 68 62.4472 68H13.0488C9.70813 68 7 65.3137 7 62V37C7 33.6863 9.70813 31 13.0488 31H54.9024C56.007 31 56.9024 30.1046 56.9024 29V21C56.9024 19.8954 56.007 19 54.9024 19H13.0488C9.70813 19 7 16.3137 7 13C7 9.68629 9.70813 7 13.0488 7H62.9512Z" fill="#7C53BD"/>
<circle cx="13" cy="13" r="10" fill="black"/>
<circle cx="63" cy="36" r="10" fill="black"/>
<circle cx="13" cy="62" r="10" fill="black"/>
<path d="M11.8888 18.5V9.492L10.4488 9.908L10.2568 7.924L12.5288 7.22H14.0328V18.5H11.8888Z" fill="white"/>
<path d="M59.9439 41.5V39.724L62.7599 35.948C63.7199 34.668 64.0239 34.06 64.0239 33.372C64.0239 32.636 63.4799 32.172 62.8399 32.172C62.1679 32.172 61.6719 32.604 61.0639 33.324L59.8159 31.836C60.6639 30.732 61.8639 30.124 63.0479 30.124C64.8079 30.124 66.1839 31.228 66.1839 33.18V33.212C66.1839 34.46 65.7519 35.292 64.4239 37.004L62.5039 39.484H66.0879V41.5H59.9439Z" fill="white"/>
<path d="M12.5501 68.176C11.3661 68.176 10.3581 67.744 9.62206 67.056L10.6621 65.392C11.0141 65.712 11.5901 66.192 12.4221 66.192C13.2861 66.192 13.9421 65.6 13.9421 64.64V64.608C13.9421 63.584 13.1421 62.976 11.6221 62.976H11.3661L11.2221 61.584L13.4301 58.8H10.1181V56.8H15.9421V58.608L13.5581 61.44C14.8861 61.76 16.0701 62.752 16.0701 64.544V64.608C16.0701 66.784 14.5661 68.176 12.5501 68.176Z" fill="white"/>
</svg>
