<svg width="150" height="150" viewBox="0 0 150 150" fill="none" xmlns="http://www.w3.org/2000/svg">
<g clip-path="url(#clip0_648_50134)">
<g filter="url(#filter0_d_648_50134)">
<path d="M43.6225 99.3623C43.6225 102.251 45.9638 104.592 48.852 104.592C51.7402 104.592 54.0816 102.251 54.0816 99.3623V47.0662C54.0816 21.0723 75.1539 0 101.148 0C127.142 0 148.214 21.0723 148.214 47.0662V125.51C148.214 137.063 138.849 146.429 127.296 146.429C115.743 146.429 106.378 137.063 106.378 125.51V47.0662C106.378 44.178 104.036 41.8368 101.148 41.8368C98.2598 41.8368 95.9184 44.178 95.9184 47.0662V99.3623C95.9184 125.356 74.8461 146.429 48.852 146.429C22.858 146.429 1.78572 125.356 1.78572 99.3623V20.9184C1.78572 9.36547 11.1512 0 22.7041 0C34.257 0 43.6225 9.36547 43.6225 20.9184V99.3623Z" fill="#FEF7EC"/>
<path d="M37.5227 20.9177C37.5223 12.7348 30.8866 6.10004 22.7034 6.10004C14.5206 6.10045 7.88617 12.7349 7.88576 20.9177V99.3618C7.88576 121.986 26.2282 140.329 48.8525 140.329C71.4766 140.328 89.8177 121.986 89.8177 99.3618V47.0668C89.8177 40.8089 94.8902 35.7375 101.148 35.737L101.73 35.7509C107.717 36.0541 112.477 41.0043 112.477 47.0668V125.511C112.478 133.694 119.113 140.329 127.297 140.329C135.479 140.328 142.114 133.694 142.114 125.511V47.0668C142.114 24.4425 123.772 6.10004 101.148 6.10004C78.5232 6.10032 60.1823 24.4427 60.1823 47.0668V99.3618C60.1823 105.424 55.4216 110.374 49.435 110.678L48.8525 110.692C42.5947 110.692 37.5227 105.62 37.5227 99.3618V20.9177ZM43.6227 99.3618C43.6227 102.25 45.9643 104.592 48.8525 104.592C51.7409 104.591 54.0823 102.249 54.0823 99.3618V47.0668C54.0823 21.0732 75.1534 0.000286668 101.148 0C127.141 0 148.214 21.0729 148.214 47.0668V125.511L148.207 126.052C147.925 137.174 138.96 146.139 127.837 146.422L127.297 146.429C115.925 146.429 106.671 137.354 106.384 126.052L106.377 125.511V47.0668C106.377 44.1786 104.036 41.837 101.148 41.837C98.2591 41.8373 95.9177 44.1791 95.9177 47.0668V99.3618C95.9177 124.949 75.5 145.769 50.068 146.415L48.8525 146.429C22.8586 146.429 1.78572 125.356 1.78572 99.3618V20.9177C1.78619 9.36534 11.1511 0.00045993 22.7034 0L23.2439 0.00697545C34.5466 0.293693 43.6223 9.54557 43.6227 20.9177V99.3618Z" fill="#926725"/>
</g>
<path d="M22.7041 38.7863C32.5723 38.7863 40.572 30.7866 40.572 20.9184C40.572 11.0503 32.5723 3.05054 22.7041 3.05054C12.836 3.05054 4.83624 11.0503 4.83624 20.9184C4.83624 30.7866 12.836 38.7863 22.7041 38.7863Z" fill="#F3AC3D"/>
<path d="M37.5214 20.9182C37.5213 12.7349 30.8871 6.10055 22.7039 6.10055C14.5207 6.10068 7.8864 12.735 7.88628 20.9182C7.88628 29.1014 14.5206 35.7355 22.7039 35.7357C30.8871 35.7357 37.5214 29.1014 37.5214 20.9182ZM43.6232 20.9182C43.6232 32.4711 34.2568 41.8375 22.7039 41.8375C11.151 41.8373 1.78624 32.4711 1.78624 20.9182C1.78638 9.36539 11.1511 0.000655015 22.7039 0.000518799C34.2568 0.000518799 43.623 9.3653 43.6232 20.9182Z" fill="#926725"/>
<path d="M127.297 143.379C137.165 143.379 145.164 135.379 145.164 125.511C145.164 115.643 137.165 107.643 127.297 107.643C117.428 107.643 109.429 115.643 109.429 125.511C109.429 135.379 117.428 143.379 127.297 143.379Z" fill="#F8CD8B"/>
<path d="M142.114 125.511C142.114 117.327 135.48 110.693 127.296 110.693C119.113 110.693 112.479 117.328 112.479 125.511C112.479 133.694 119.113 140.328 127.296 140.328C135.48 140.328 142.114 133.694 142.114 125.511ZM148.216 125.511C148.216 137.064 138.849 146.43 127.296 146.43C115.744 146.43 106.379 137.064 106.379 125.511C106.379 113.958 115.744 104.593 127.296 104.593C138.849 104.593 148.216 113.958 148.216 125.511Z" fill="#926725"/>
</g>
<defs>
<filter id="filter0_d_648_50134" x="1.78572" y="0" width="146.429" height="149.915" filterUnits="userSpaceOnUse" color-interpolation-filters="sRGB">
<feFlood flood-opacity="0" result="BackgroundImageFix"/>
<feColorMatrix in="SourceAlpha" type="matrix" values="0 0 0 0 0 0 0 0 0 0 0 0 0 0 0 0 0 0 127 0" result="hardAlpha"/>
<feOffset dy="3.48639"/>
<feComposite in2="hardAlpha" operator="out"/>
<feColorMatrix type="matrix" values="0 0 0 0 0.572549 0 0 0 0 0.403922 0 0 0 0 0.145098 0 0 0 1 0"/>
<feBlend mode="normal" in2="BackgroundImageFix" result="effect1_dropShadow_648_50134"/>
<feBlend mode="normal" in="SourceGraphic" in2="effect1_dropShadow_648_50134" result="shape"/>
</filter>
<clipPath id="clip0_648_50134">
<rect width="150" height="150" fill="white"/>
</clipPath>
</defs>
</svg>
