<svg width="40" height="40" viewBox="0 0 40 40" fill="none" xmlns="http://www.w3.org/2000/svg">
<path fill-rule="evenodd" clip-rule="evenodd" d="M19.9918 2C25.932 2.00015 30.7472 6.81687 30.7475 12.757C30.7475 13.7115 30.6193 14.6378 30.3849 15.5207C31.2681 15.7594 32.1346 16.1166 32.9621 16.5944C38.1065 19.5647 39.8693 26.1428 36.8992 31.2872C33.9288 36.4311 27.3508 38.1938 22.2064 35.2243C21.3789 34.7463 20.6387 34.1719 19.9905 33.5264C19.3427 34.1715 18.6032 34.7466 17.7759 35.2243C12.6316 38.1934 6.05319 36.4314 3.08311 31.2872C0.113225 26.1429 1.87649 19.5649 7.02019 16.5944C7.84757 16.1167 8.71458 15.7607 9.59742 15.522C9.36287 14.6388 9.23484 13.7118 9.23479 12.757C9.23513 6.81693 14.0517 2.00025 19.9918 2ZM11.3859 19.2053C10.5733 19.3278 9.76764 19.6004 9.00945 20.038C5.76798 21.9101 4.6579 26.056 6.52935 29.2979C8.40134 32.5396 12.546 33.6496 15.788 31.778C16.8593 31.1593 17.6941 30.297 18.2681 29.3018C19.2796 27.5471 19.4769 25.3878 18.7071 23.4337C15.7152 23.0771 13.1037 21.4943 11.3859 19.2053ZM27.5875 19.1289C25.5631 19.1305 23.5939 20.0376 22.2867 21.6802C23.475 24.4499 23.4089 27.5031 22.2854 30.1358C22.7979 30.7787 23.4361 31.3401 24.1944 31.778C27.4364 33.6498 31.5822 32.5397 33.4543 29.2979C35.3262 26.0559 34.2151 21.9099 30.9729 20.038C29.9015 19.4197 28.7362 19.1282 27.5875 19.1289ZM19.9918 5.97852C16.2484 5.97876 13.2136 9.01369 13.2133 12.757C13.2134 13.9942 13.5436 15.1491 14.1186 16.1437C15.1321 17.8962 16.9031 19.1455 18.9791 19.4565C20.7831 17.0443 23.4601 15.5745 26.3002 15.2306C26.6007 14.4654 26.7703 13.6326 26.7703 12.757C26.77 9.01363 23.7352 5.97867 19.9918 5.97852Z" fill="#38730D"/>
</svg>
