<svg width="40" height="40" viewBox="0 0 40 40" fill="none" xmlns="http://www.w3.org/2000/svg">
<g clip-path="url(#clip0_783_41091)">
<path d="M27.2031 3.79395L35.876 14.0439C36.3504 14.6049 36.4231 15.4031 36.0586 16.041L33.832 19.9375C33.4587 20.5907 32.7095 20.9325 31.9717 20.7852L27.8213 19.9551L24.8076 19.3516C24.6908 19.3283 24.5874 19.3287 24.5049 19.4111C24.3701 19.5459 24.419 19.7765 24.5967 19.8496L25.2773 20.1455C27.4081 21.125 28.8835 22.3388 29.8613 23.8193C30.4859 24.7651 30.9061 25.8188 31.165 26.9883H33.2207V33.8652H34.9404V37.3623H5.65234V33.8652H7.37207V26.9883H9.0918C9.10226 16.1705 14.9832 6.72734 23.7207 1.67285C24.8246 1.03435 25.9742 0.465992 27.1631 -0.0263672L27.2031 -0.0429688V3.79395ZM10.8691 33.8652H29.7246V30.4854H10.8691V33.8652ZM24.1055 5.54688C17.1675 10.1595 12.5977 18.0429 12.5879 26.9883H27.541C27.4013 26.5759 27.2338 26.2157 27.0391 25.8965C26.4557 24.9397 25.4074 23.9632 23.2676 23.084C20.8631 22.096 20.0697 18.9007 22.0322 16.9385C22.9213 16.0497 24.1961 15.6637 25.4287 15.9102L31.4209 17.1074L32.415 15.3682L24.1055 5.54688ZM24.5947 9.79395C25.5603 9.79395 26.3436 10.5765 26.3438 11.542C26.3438 12.5076 25.5603 13.291 24.5947 13.291C23.6293 13.2908 22.8467 12.5074 22.8467 11.542C22.8468 10.5767 23.6294 9.79417 24.5947 9.79395Z" fill="#806000" stroke="#0A0A0A" stroke-width="0.0578571"/>
</g>
<defs>
<clipPath id="clip0_783_41091">
<rect width="40" height="40" fill="white"/>
</clipPath>
</defs>
</svg>
