<svg width="40" height="40" viewBox="0 0 40 40" fill="none" xmlns="http://www.w3.org/2000/svg">
<path fill-rule="evenodd" clip-rule="evenodd" d="M16.3926 21.7003C17.4434 21.7007 18.2963 22.5531 18.2963 23.604V34.4256C18.2963 35.4765 17.4434 36.3289 16.3926 36.3293H5.57099C4.51993 36.3293 3.66602 35.4767 3.66602 34.4256V23.604C3.66602 22.5529 4.51993 21.7003 5.57099 21.7003H16.3926ZM7.47337 32.5232H14.4902V25.5064H7.47337V32.5232Z" fill="#CC0044"/>
<path fill-rule="evenodd" clip-rule="evenodd" d="M34.4303 21.7003C35.4811 21.7007 36.334 22.5531 36.334 23.604V34.4256C36.334 35.4765 35.4811 36.3289 34.4303 36.3293H23.6087C22.5576 36.3293 21.705 35.4767 21.705 34.4256V23.604C21.705 22.5529 22.5576 21.7003 23.6087 21.7003H34.4303ZM25.5111 32.5232H32.5279V25.5064H25.5111V32.5232Z" fill="#CC0044"/>
<path fill-rule="evenodd" clip-rule="evenodd" d="M16.3926 3.6626C17.4434 3.66295 18.2963 4.51543 18.2963 5.56628V16.3879C18.2963 17.4388 17.4434 18.2912 16.3926 18.2915H5.57099C4.51993 18.2915 3.66602 17.439 3.66602 16.3879V5.56628C3.66602 4.51521 4.51993 3.6626 5.57099 3.6626H16.3926ZM7.47337 14.4855H14.4902V7.46866H7.47337V14.4855Z" fill="#CC0044"/>
<path fill-rule="evenodd" clip-rule="evenodd" d="M30.9219 9.07469H36.334V12.8808H30.9219V18.2915H27.1158V12.8808H21.705V9.07469H27.1158V3.6626H30.9219V9.07469Z" fill="#CC0044"/>
</svg>
