<svg width="74" height="74" viewBox="0 0 74 74" fill="none" xmlns="http://www.w3.org/2000/svg">
<path d="M36 1V27H1V1H36Z" fill="white" stroke="black" stroke-width="2"/>
<rect x="1" y="27" width="35" height="46" fill="#0199B1" stroke="black" stroke-width="2"/>
<path d="M73 37V73H36V37H73Z" fill="white" stroke="black" stroke-width="2"/>
<path d="M73.001 1V37H36V1H73.001Z" fill="#0199B1" stroke="black" stroke-width="2"/>
<path d="M15.6349 19V17.335L18.2749 13.795C19.1749 12.595 19.4599 12.025 19.4599 11.38C19.4599 10.69 18.9499 10.255 18.3499 10.255C17.7199 10.255 17.2549 10.66 16.6849 11.335L15.5149 9.94C16.3099 8.905 17.4349 8.335 18.5449 8.335C20.1949 8.335 21.4849 9.37 21.4849 11.2V11.23C21.4849 12.4 21.0799 13.18 19.8349 14.785L18.0349 17.11H21.3949V19H15.6349Z" fill="#1D1D1B"/>
<path d="M55.1321 26V23.26H50.0121L49.8121 21.28L55.1521 11.94H57.6521V20.96H59.1121V23.26H57.6521V26H55.1321ZM52.4921 20.96H55.1321V16.24L52.4921 20.96Z" fill="#1D1D1B"/>
<path d="M18.6155 58.286C17.1335 58.286 15.9115 57.766 15.0275 56.856C13.7795 55.556 12.9735 53.606 12.9735 49.68V49.446C12.9735 42.556 15.4955 39.514 19.4475 39.514C20.8515 39.514 22.1255 39.982 23.3475 40.84L21.8395 43.726C21.3715 43.31 20.4355 42.738 19.4215 42.738C17.7055 42.738 16.6135 44.272 16.4835 47.21C17.3155 46.612 18.2255 46.248 19.4215 46.248C21.7875 46.248 24.1015 47.99 24.1015 51.942V52.02C24.1015 55.738 21.6575 58.286 18.6155 58.286ZM18.5895 55.166C19.9155 55.166 20.7215 54.048 20.7215 52.202V52.176C20.7215 50.33 19.9155 49.212 18.5895 49.212C17.2635 49.212 16.4575 50.33 16.4575 52.176V52.202C16.4575 54.048 17.2635 55.166 18.5895 55.166Z" fill="#1D1D1B"/>
<path d="M55.1321 63V60.26H50.0121L49.8121 58.28L55.1521 48.94H57.6521V57.96H59.1121V60.26H57.6521V63H55.1321ZM52.4921 57.96H55.1321V53.24L52.4921 57.96Z" fill="#1D1D1B"/>
</svg>
