<svg width="150" height="150" viewBox="0 0 150 150" fill="none" xmlns="http://www.w3.org/2000/svg">
<g filter="url(#filter0_d_1185_27102)">
<path d="M111.793 124.185V11.218C111.787 9.12873 110.955 7.12677 109.477 5.64943C108 4.17209 105.998 3.33944 103.909 3.33337H14.5497C12.4604 3.33944 10.4584 4.17209 8.98109 5.64943C7.50375 7.12677 6.67111 9.12873 6.66504 11.218V126.859C6.67544 130.341 8.06327 133.677 10.5254 136.14C12.9876 138.602 16.324 139.99 19.8061 140H127.562" fill="#E5FAF5"/>
<path d="M111.793 124.185V11.218C111.787 9.12873 110.955 7.12677 109.477 5.64943C108 4.17209 105.998 3.33944 103.909 3.33337H14.5497C12.4604 3.33944 10.4584 4.17209 8.98109 5.64943C7.50375 7.12677 6.67111 9.12873 6.66504 11.218V126.859C6.67544 130.341 8.06328 133.677 10.5254 136.14C12.9876 138.602 16.324 139.99 19.8061 140H127.562" stroke="#007A5E" stroke-width="6.66667" stroke-linejoin="round"/>
<path d="M127.565 140.004C123.383 140.004 119.372 138.342 116.415 135.385C113.458 132.428 111.796 128.417 111.796 124.235V29.6193H135.45C137.541 29.6193 139.547 30.45 141.025 31.9286C142.504 33.4073 143.335 35.4127 143.335 37.5039V124.235C143.335 128.417 141.673 132.428 138.716 135.385C135.759 138.342 131.748 140.004 127.565 140.004Z" fill="#00CC9D" stroke="#007A5E" stroke-width="6.66667" stroke-linejoin="round"/>
<path d="M69.7448 29.6193H90.7705M69.7448 50.6449H90.7705M27.6935 71.6706H90.7705M27.6935 92.6962H90.7705M27.6935 113.722H90.7705" stroke="#007A5E" stroke-width="6.66667" stroke-linecap="round" stroke-linejoin="round"/>
<path d="M48.7228 55.9004H27.6971C26.3031 55.9004 24.9661 55.3466 23.9803 54.3608C22.9945 53.3751 22.4407 52.0381 22.4407 50.644V29.6183C22.4407 28.2243 22.9945 26.8873 23.9803 25.9015C24.9661 24.9157 26.3031 24.3619 27.6971 24.3619H48.7228C50.1169 24.3619 51.4539 24.9157 52.4396 25.9015C53.4254 26.8873 53.9792 28.2243 53.9792 29.6183V50.644C53.9792 52.0381 53.4254 53.3751 52.4396 54.3608C51.4539 55.3466 50.1169 55.9004 48.7228 55.9004Z" fill="#007A5E"/>
</g>
<defs>
<filter id="filter0_d_1185_27102" x="3.33167" y="0" width="143.336" height="150.004" filterUnits="userSpaceOnUse" color-interpolation-filters="sRGB">
<feFlood flood-opacity="0" result="BackgroundImageFix"/>
<feColorMatrix in="SourceAlpha" type="matrix" values="0 0 0 0 0 0 0 0 0 0 0 0 0 0 0 0 0 0 127 0" result="hardAlpha"/>
<feOffset dy="6.66667"/>
<feComposite in2="hardAlpha" operator="out"/>
<feColorMatrix type="matrix" values="0 0 0 0 0 0 0 0 0 0.478431 0 0 0 0 0.368627 0 0 0 1 0"/>
<feBlend mode="normal" in2="BackgroundImageFix" result="effect1_dropShadow_1185_27102"/>
<feBlend mode="normal" in="SourceGraphic" in2="effect1_dropShadow_1185_27102" result="shape"/>
</filter>
</defs>
</svg>
