<svg width="67.5" height="58.19" viewBox="0 0 67.5 58.19" fill="none" xmlns="http://www.w3.org/2000/svg">
<g clip-path="url(#clip0_7428_9065)">
<mask id="path-1-inside-1_7428_9065" fill="white">
<path d="M60.2998 0C64.2763 0 67.5 3.22375 67.5 7.2002V38.5361C67.5 42.5126 64.2763 45.7363 60.2998 45.7363H59.3525L48.4189 58.1855L49.8398 45.7363H7.2002C3.22375 45.7363 0 42.5126 0 38.5361V7.2002C0 3.22375 3.22375 0 7.2002 0H60.2998Z"/>
</mask>
<path d="M60.2998 0C64.2763 0 67.5 3.22375 67.5 7.2002V38.5361C67.5 42.5126 64.2763 45.7363 60.2998 45.7363H59.3525L48.4189 58.1855L49.8398 45.7363H7.2002C3.22375 45.7363 0 42.5126 0 38.5361V7.2002C0 3.22375 3.22375 0 7.2002 0H60.2998Z" fill="white"/>
<path d="M59.3525 45.7363V43.7363H58.4472L57.8498 44.4166L59.3525 45.7363ZM48.4189 58.1855L46.4318 57.9587L45.7077 64.3035L49.9217 59.5053L48.4189 58.1855ZM49.8398 45.7363L51.8269 45.9631L52.0811 43.7363H49.8398V45.7363ZM60.2998 0V2C63.1717 2 65.5 4.32831 65.5 7.2002H67.5H69.5C69.5 2.11918 65.3808 -2 60.2998 -2V0ZM67.5 7.2002H65.5V38.5361H67.5H69.5V7.2002H67.5ZM67.5 38.5361H65.5C65.5 41.408 63.1717 43.7363 60.2998 43.7363V45.7363V47.7363C65.3808 47.7363 69.5 43.6172 69.5 38.5361H67.5ZM60.2998 45.7363V43.7363H59.3525V45.7363V47.7363H60.2998V45.7363ZM59.3525 45.7363L57.8498 44.4166L46.9162 56.8658L48.4189 58.1855L49.9217 59.5053L60.8553 47.0561L59.3525 45.7363ZM48.4189 58.1855L50.406 58.4123L51.8269 45.9631L49.8398 45.7363L47.8527 45.5095L46.4318 57.9587L48.4189 58.1855ZM49.8398 45.7363V43.7363H7.2002V45.7363V47.7363H49.8398V45.7363ZM7.2002 45.7363V43.7363C4.32831 43.7363 2 41.408 2 38.5361H0H-2C-2 43.6172 2.11918 47.7363 7.2002 47.7363V45.7363ZM0 38.5361H2V7.2002H0H-2V38.5361H0ZM0 7.2002H2C2 4.32831 4.32831 2 7.2002 2V0V-2C2.11918 -2 -2 2.11918 -2 7.2002H0ZM7.2002 0V2H60.2998V0V-2H7.2002V0Z" fill="#1D1D1B" mask="url(#path-1-inside-1_7428_9065)"/>
<path d="M19.1383 26.9279L18.1765 19.7542L18.417 19.4336C21.7834 18.8725 23.0258 17.7904 23.0258 16.5079V16.4679C23.0258 15.506 22.3044 14.7846 21.022 14.7846C19.7796 14.7846 18.1364 15.2655 16.1326 16.6682L13.6879 10.2559C15.9723 8.77307 18.8177 7.57076 21.9437 7.57076C27.4744 7.57076 30.8007 10.7368 30.8007 15.4659C30.8007 19.7542 28.316 21.9985 24.5888 23.3611L23.9877 26.9279H19.1383ZM17.3749 35.9854V28.8116H25.5907V35.9854H17.3749Z" fill="#1D1D1B"/>
<path d="M41.9448 26.9279L39.2196 10.1357V7.93145H48.5174V10.1357L45.7922 26.9279H41.9448ZM39.7806 35.9854V28.8116H47.9564V35.9854H39.7806Z" fill="#1D1D1B"/>
</g>
<defs>
<clipPath id="clip0_7428_9065">
<rect width="67.5" height="58.1862" fill="white"/>
</clipPath>
</defs>
</svg>