<svg width="119" height="160" viewBox="0 0 119 160" fill="none" xmlns="http://www.w3.org/2000/svg">
<rect x="77.7364" y="41.2495" width="36.4864" height="36.4864" fill="#FEF7EC" stroke="#926725" stroke-width="4.05404"/>
<rect x="4.7643" y="41.2495" width="36.4864" height="36.4864" fill="#FEF7EC" stroke="#926725" stroke-width="4.05404"/>
<rect x="41.2504" y="4.7634" width="36.4864" height="36.4864" fill="#F3AC3D" stroke="#926725" stroke-width="4.05404"/>
<rect x="77.7364" y="77.7355" width="36.4864" height="36.4864" fill="#FEF7EC" stroke="#926725" stroke-width="4.05404"/>
<rect x="4.7643" y="77.7355" width="36.4864" height="36.4864" fill="#F8CD8B" stroke="#926725" stroke-width="4.05404"/>
<rect x="41.2504" y="41.2495" width="36.4864" height="36.4864" fill="#FEF7EC" stroke="#926725" stroke-width="4.05404"/>
<rect x="77.7364" y="114.222" width="36.4864" height="36.4864" fill="#F8CD8B" stroke="#926725" stroke-width="4.05404"/>
<path d="M102.103 103.682H98.6006C98.5579 98.5986 97.6822 96.6123 95.7173 96.6123H94.8843V103.682H91.3389V87.941H97.5327C100.523 87.941 101.676 89.4147 101.676 91.3369V92.1912C101.676 94.0067 100.544 95.0959 98.387 95.3095C100.865 96.0357 102.103 98.321 102.103 103.682ZM98.1948 92.5116V92.0845C98.1948 90.6962 97.4259 90.1836 96.0376 90.1836H94.8843V94.3484H95.8454C97.5327 94.3484 98.1948 93.729 98.1948 92.5116Z" fill="#926725"/>
<g filter="url(#filter0_d_874_31528)">
<path d="M83.7638 39.2218V41.9583H112.25V39.2218V36.4854H83.7638V39.2218ZM116.25 43.2218H113.514V148.736H116.25H118.987V43.2218H116.25ZM112.25 152.736V149.999H79.7091V152.736V155.472H112.25V152.736ZM75.7091 148.736H78.4456V83.7628H75.7091H72.9726V148.736H75.7091ZM71.7091 79.7628V77.0264H47.2775V79.7628V82.4993H71.7091V79.7628ZM43.2775 83.7628H40.541V112.249H43.2775H46.014V83.7628H43.2775ZM39.2775 116.249V113.513H6.73647V116.249V118.986H39.2775V116.249ZM2.73647 112.249H5.47294V43.2218H2.73647H-6.67572e-06V112.249H2.73647ZM6.73647 39.2218V41.9583H35.2228V39.2218V36.4854H6.73647V39.2218ZM39.2228 35.2218H41.9593V6.73648H39.2228H36.4863V35.2218H39.2228ZM43.2228 2.73648V5.47295H75.7638V2.73648V8.58307e-06H43.2228V2.73648ZM79.7638 6.73648H77.0273V35.2218H79.7638H82.5003V6.73648H79.7638ZM75.7638 2.73648V5.47295C76.4616 5.47295 77.0273 6.03865 77.0273 6.73648H79.7638H82.5003C82.5003 3.01603 79.4843 8.58307e-06 75.7638 8.58307e-06V2.73648ZM39.2228 6.73648H41.9593C41.9593 6.03865 42.525 5.47295 43.2228 5.47295V2.73648V8.58307e-06C39.5023 8.58307e-06 36.4863 3.01603 36.4863 6.73648H39.2228ZM35.2228 39.2218V41.9583C38.9432 41.9583 41.9593 38.9423 41.9593 35.2218H39.2228H36.4863C36.4863 35.9197 35.9206 36.4854 35.2228 36.4854V39.2218ZM2.73647 43.2218H5.47294C5.47294 42.524 6.03864 41.9583 6.73647 41.9583V39.2218V36.4854C3.01602 36.4854 -6.67572e-06 39.5014 -6.67572e-06 43.2218H2.73647ZM6.73647 116.249V113.513C6.03864 113.513 5.47294 112.947 5.47294 112.249H2.73647H-6.67572e-06C-6.67572e-06 115.97 3.01602 118.986 6.73647 118.986V116.249ZM43.2775 112.249H40.541C40.541 112.947 39.9753 113.513 39.2775 113.513V116.249V118.986C42.9979 118.986 46.014 115.97 46.014 112.249H43.2775ZM47.2775 79.7628V77.0264C43.557 77.0264 40.541 80.0424 40.541 83.7628H43.2775H46.014C46.014 83.065 46.5797 82.4993 47.2775 82.4993V79.7628ZM75.7091 83.7628H78.4456C78.4456 80.0424 75.4296 77.0264 71.7091 77.0264V79.7628V82.4993C72.407 82.4993 72.9726 83.065 72.9726 83.7628H75.7091ZM79.7091 152.736V149.999C79.0113 149.999 78.4456 149.433 78.4456 148.736H75.7091H72.9726C72.9726 152.456 75.9887 155.472 79.7091 155.472V152.736ZM116.25 148.736H113.514C113.514 149.433 112.948 149.999 112.25 149.999V152.736V155.472C115.971 155.472 118.987 152.456 118.987 148.736H116.25ZM112.25 39.2218V41.9583C112.948 41.9583 113.514 42.524 113.514 43.2218H116.25H118.987C118.987 39.5014 115.971 36.4854 112.25 36.4854V39.2218ZM83.7638 39.2218V36.4854C83.066 36.4854 82.5003 35.9197 82.5003 35.2218H79.7638H77.0273C77.0273 38.9423 80.0434 41.9583 83.7638 41.9583V39.2218Z" fill="#926725"/>
</g>
<path d="M28.3896 62.5172C28.3896 65.849 26.0616 67.4082 22.089 67.4082C19.8037 67.4082 18.5009 67.0878 17.4971 66.7033V64.055C18.2873 64.5248 19.9746 65.0374 21.6619 65.0374C23.9685 65.0374 24.8656 64.3326 24.8656 63.2007C24.8656 62.1328 24.5452 61.5134 21.7687 60.3601C19.2698 59.3776 17.8815 58.0961 17.8815 55.5545C17.8815 53.1197 20.0814 51.2402 23.7122 51.2402C25.4422 51.2402 27.0227 51.6247 27.578 51.8383V54.2303C26.3606 53.9313 25.2073 53.675 23.9045 53.675C22.025 53.675 21.2347 54.3158 21.2347 55.2128C21.2347 56.3448 21.491 56.6438 24.4598 57.733C27.279 58.7582 28.3896 60.3387 28.3896 62.5172Z" fill="#926725"/>
<defs>
<filter id="filter0_d_874_31528" x="0" y="0" width="118.987" height="159.121" filterUnits="userSpaceOnUse" color-interpolation-filters="sRGB">
<feFlood flood-opacity="0" result="BackgroundImageFix"/>
<feColorMatrix in="SourceAlpha" type="matrix" values="0 0 0 0 0 0 0 0 0 0 0 0 0 0 0 0 0 0 127 0" result="hardAlpha"/>
<feOffset dy="3.64863"/>
<feComposite in2="hardAlpha" operator="out"/>
<feColorMatrix type="matrix" values="0 0 0 0 0.572549 0 0 0 0 0.403922 0 0 0 0 0.145098 0 0 0 1 0"/>
<feBlend mode="normal" in2="BackgroundImageFix" result="effect1_dropShadow_874_31528"/>
<feBlend mode="normal" in="SourceGraphic" in2="effect1_dropShadow_874_31528" result="shape"/>
</filter>
</defs>
</svg>
