<svg width="150" height="150" viewBox="0 0 150 150" fill="none" xmlns="http://www.w3.org/2000/svg">
<g clip-path="url(#clip0_1188_35620)">
<mask id="mask0_1188_35620" style="mask-type:luminance" maskUnits="userSpaceOnUse" x="6" y="3" width="138" height="138">
<path d="M6.66605 6.66839C6.66605 4.82744 8.15843 3.33505 9.99938 3.33505H139.999C141.84 3.33505 143.333 4.82744 143.333 6.66839V140.002H6.66605V6.66839Z" fill="white"/>
</mask>
<g mask="url(#mask0_1188_35620)">
<path d="M52.2191 3.33456H6.6691V48.8846H52.2191V3.33456Z" fill="#9AA3FF"/>
<path d="M36.889 31.3083H34.7024V37.335H30.7024V31.3083H22.7024L22.489 27.5216L32.0357 17.6816H34.7024V28.455H36.889V31.3083ZM30.7557 28.455V22.8016L25.3957 28.455H30.7557Z" fill="#343D99"/>
<path d="M54.7168 0.834137V51.3843H4.16666V0.834137H54.7168ZM9.16666 46.3843H49.7168V5.83414H9.16666V46.3843Z" fill="#343D99"/>
<path d="M97.7676 3.33456H52.2176V48.8846H97.7676V3.33456Z" fill="#9AA3FF"/>
<path d="M100.269 0.834473V51.3846H49.7188V0.834473H100.269ZM54.7188 46.3846H95.2689V5.83447H54.7188V46.3846Z" fill="#343D99"/>
<path d="M143.316 3.33481H97.7657V48.8848H143.316V3.33481Z" fill="#EEF0FF"/>
<path d="M145.814 0.834137V51.3843H95.2637V0.834137H145.814ZM100.264 46.3843H140.814V5.83414H100.264V46.3843Z" fill="#343D99"/>
<path d="M52.2191 48.8831H6.6691V94.4331H52.2191V48.8831Z" fill="#9AA3FF"/>
<path d="M54.7168 46.3847V96.9348H4.16666V46.3847H54.7168ZM9.16666 91.9348H49.7168V51.3847H9.16666V91.9348Z" fill="#343D99"/>
<path d="M97.7676 48.8831H52.2176V94.4331H97.7676V48.8831Z" fill="#9AA3FF"/>
<path d="M100.269 46.3848V96.935H49.7188V46.3848H100.269ZM54.7188 91.935H95.2689V51.3848H54.7188V91.935Z" fill="#343D99"/>
<path d="M143.316 48.8831H97.7661V94.4331H143.316V48.8831Z" fill="#EEF0FF"/>
<path d="M145.814 46.3847V96.9348H95.2637V46.3847H145.814ZM100.264 91.9348H140.814V51.3847H100.264V91.9348Z" fill="#343D99"/>
<path d="M52.2191 94.4336H6.6691V139.984H52.2191V94.4336Z" fill="#5665FF"/>
<path d="M54.7168 91.9352V142.485H4.16666V91.9352H54.7168ZM9.16666 137.485H49.7168V96.9352H9.16666V137.485Z" fill="#343D99"/>
<path d="M97.7676 94.4336H52.2176V139.984H97.7676V94.4336Z" fill="#5665FF"/>
<path d="M100.269 91.9351V142.485H49.7188V91.9351H100.269ZM54.7188 137.485H95.2689V96.9351H54.7188V137.485Z" fill="#343D99"/>
<path d="M143.316 94.4336H97.7661V139.984H143.316V94.4336Z" fill="#5665FF"/>
<path d="M145.814 91.9352V142.485H95.2637V91.9352H145.814ZM100.264 137.485H140.814V96.9352H100.264V137.485Z" fill="#343D99"/>
<path d="M81.3323 121.52C81.3323 125.173 78.399 127.653 74.319 127.653C70.719 127.653 68.5056 126.187 67.279 124.08L70.0256 122.4C70.8256 123.787 72.1323 124.667 73.9723 124.667C75.999 124.667 77.1723 123.653 77.1723 121.253C77.1723 119.36 75.7856 118.4 73.9456 118.4H71.999V115.627H74.0523C75.8656 115.627 76.9323 114.72 76.9323 112.96C76.9323 111.013 75.759 110.373 74.3723 110.373C72.6123 110.373 72.1056 111.093 71.8656 111.84H68.3456C68.6656 109.04 71.199 107.387 74.7723 107.387C78.9056 107.387 80.9856 109.68 80.9856 112.293C80.9856 114.8 79.599 116.267 77.839 116.773C79.7323 117.147 81.3323 118.933 81.3323 121.52Z" fill="#EEF0FF"/>
<path d="M126.385 80.6679H112.998V77.3612C119.825 71.7612 121.851 68.7212 121.851 66.4279C121.851 64.8279 121.051 63.7345 119.158 63.7345C117.345 63.7345 116.705 64.6412 116.651 65.5745H112.865C113.131 62.2412 116.011 60.7479 119.585 60.7479C124.278 60.7479 126.225 63.2012 126.225 66.3745C126.225 70.5079 123.025 74.0545 116.651 77.7345H126.385V80.6679Z" fill="#343D99"/>
</g>
<path d="M9.99919 6.66667V136.667H139.999V6.66667H9.99919ZM146.666 143.333H3.33252V6.66667C3.33252 2.98477 6.31729 0 9.99919 0H139.999C143.681 0 146.666 2.9848 146.666 6.66667V143.333Z" fill="#343D99"/>
<mask id="mask1_1188_35620" style="mask-type:luminance" maskUnits="userSpaceOnUse" x="3" y="143" width="144" height="8">
<path d="M146.67 143.337H3.33658V150.004H146.67V143.337Z" fill="white"/>
</mask>
<g mask="url(#mask1_1188_35620)">
<path d="M146.67 143.337C146.67 147.019 143.685 150.004 140.003 150.004H10.0032C6.32135 150.004 3.33658 147.019 3.33658 143.337C3.33658 143.337 4.82896 143.337 6.66991 143.337H143.337C145.178 143.337 146.67 143.337 146.67 143.337Z" fill="#343D99"/>
</g>
</g>
<defs>
<clipPath id="clip0_1188_35620">
<rect width="150" height="150" fill="white"/>
</clipPath>
</defs>
</svg>
