<svg width="74" height="74" viewBox="0 0 74 74" fill="none" xmlns="http://www.w3.org/2000/svg">
<path d="M37 1V37H1V1H37Z" fill="white" stroke="black" stroke-width="2"/>
<rect x="1" y="37" width="36" height="36" fill="#3FA56B" stroke="black" stroke-width="2"/>
<rect x="37" y="37" width="36" height="36" fill="white" stroke="black" stroke-width="2"/>
<path d="M73 1V37H37V1H73Z" fill="#3FA56B" stroke="black" stroke-width="2"/>
<g clip-path="url(#clip0_7428_9027)">
<path d="M15.5182 32.5C11.8488 32.5 11.6552 32.415 11.2443 31.7502C11.2225 31.7148 11.1569 31.6116 11.1569 31.6116L11.1018 31.4581C11.0442 31.2999 11.0399 31.2803 11.0199 31.1089L11 30.9421L11.0402 30.5883L11.0975 30.433C11.1558 30.2726 11.1667 30.2512 11.2646 30.1105L11.3591 29.9727L11.632 29.7317L11.7919 29.6456C11.8691 29.6039 11.9144 29.5796 11.9607 29.5607C11.7799 29.46 11.6556 29.3589 11.4501 29.1561L11.4229 29.1293L11.2479 28.8137L11.1834 28.4356L11.2044 28.2252C11.2251 28.0096 11.2301 27.9864 11.2972 27.8082L11.3595 27.6397L11.4505 27.4983C11.5425 27.3537 11.5548 27.3387 11.6694 27.2276L11.7748 27.1248L11.8549 27.0687C12.0503 26.932 12.1195 26.888 12.4105 26.7849C12.6892 26.7009 12.911 26.6306 13.127 26.562C13.6713 26.3889 14.1856 26.2253 15.2648 25.9615C15.3058 25.9222 15.3286 25.8936 15.3601 25.8551C15.3812 25.8294 15.4475 25.7508 15.4475 25.7508L15.4855 25.7165C15.529 25.6772 15.5446 25.6655 15.5921 25.6383L15.6551 25.6019L15.6649 25.5998C15.861 25.4402 16.4202 24.5029 16.3948 24.0876C16.3912 24.0265 16.3626 23.9726 16.314 23.9348C16.2702 23.9012 16.2278 23.8848 16.185 23.8827C15.6551 23.853 15.1191 23.8484 14.6009 23.8437C14.1214 23.8394 13.6902 23.6141 13.418 23.226C13.1458 22.8375 13.0842 22.3605 13.2498 21.9174C13.8554 20.2963 15.0923 17.0256 16.5822 13.3136C16.5923 13.2536 16.5786 13.1936 16.5423 13.1429C16.5039 13.089 16.4463 13.0547 16.3803 13.0469C15.8084 12.9794 14.8154 12.8933 13.3325 12.8666C13.1842 12.8587 13.0527 12.8408 12.932 12.8123C12.5736 12.7273 12.3366 12.3774 12.3924 12.015C12.4507 11.6354 12.5449 11.1816 12.6504 10.7695C12.732 10.4525 12.9505 10.1943 13.2502 10.0615C14.104 9.68299 16.9464 8.39578 17.6727 7.72236C17.8376 7.56454 17.9633 7.39565 18.1003 7.19105C18.1358 7.13785 18.171 7.085 18.2087 7.02716L18.2116 7.02894L18.2239 7.01073L18.221 7.00895L18.2917 6.89397C18.3971 6.72187 18.5925 6.40408 18.7603 6.13664C19.0223 5.71888 19.0585 5.67817 19.0803 5.65354L19.0977 5.6339L19.2473 5.52035H19.3539C19.4615 5.50643 19.5587 5.5 19.6493 5.5C20.1595 5.5 20.4154 5.71067 20.8028 6.02917L20.8688 6.08344C21.5773 6.64653 21.753 6.75472 22.5996 7.27353C22.9682 7.49955 23.4614 7.80198 24.1768 8.25117L24.5222 8.48754C24.9096 8.75213 24.9216 8.76177 25.1669 8.99029L25.3815 9.18917L25.4333 9.27379C25.4862 9.35985 25.579 9.51088 25.5996 9.54623L25.6533 9.62907V9.6812C25.6663 9.74654 25.7196 10.0068 25.7196 10.0068L25.7221 10.0447C25.7221 11.0034 25.5072 19.7564 25.4413 22.4162C25.4224 23.18 24.7991 23.793 24.0224 23.8116L23.817 23.8162C23.3052 23.8284 22.8214 23.8394 22.343 23.8734C22.2977 23.8766 22.2535 23.8955 22.2187 23.9262C22.1778 23.9623 22.1524 24.0141 22.1484 24.069C22.0944 24.8124 22.1977 25.503 22.3224 25.6008L22.3644 25.6094L22.3804 25.6219L22.4644 25.6694L22.4866 25.689C22.5772 25.7701 22.6148 25.8179 22.6515 25.8679C22.6703 25.8936 22.6855 25.9143 22.7355 25.9611C23.8286 26.2286 24.4421 26.4235 24.9836 26.5956C25.1814 26.6585 25.3724 26.7192 25.5772 26.7802C25.8798 26.887 25.9476 26.9302 26.161 27.0794L26.2255 27.1241L26.331 27.2269C26.4455 27.3379 26.4578 27.3529 26.5499 27.4976L26.6409 27.639L26.7032 27.8078C26.7695 27.9849 26.7749 28.0082 26.797 28.2231L26.8199 28.4352L26.7521 28.814L26.5774 29.1286L26.5502 29.1554C26.3451 29.3578 26.2212 29.4589 26.0436 29.5578L26.1904 29.6353C26.3596 29.7238 26.3777 29.7363 26.5111 29.8563L26.6409 29.9724L26.7354 30.1102C26.8333 30.2509 26.8442 30.2723 26.9025 30.4326L26.9598 30.5879L26.9996 30.9407L26.9812 31.1064C26.963 31.2781 26.9576 31.3013 26.8982 31.4599L26.8424 31.6113L26.7572 31.7462C26.6684 31.888 26.6539 31.9058 26.5347 32.0215L26.4201 32.1333L26.2853 32.2201C26.144 32.3115 26.1262 32.3204 25.9653 32.3775L25.8088 32.4339L25.6377 32.4532C25.4895 32.4704 25.4652 32.4725 25.3855 32.4725C25.3855 32.4725 24.0101 32.4725 23.4408 32.4736C22.7388 32.4746 22.0814 32.4761 21.4627 32.4779C20.3012 32.4814 19.2814 32.4857 18.3848 32.49C17.2407 32.495 16.2973 32.4993 15.5174 32.4993L15.5182 32.5Z" fill="black"/>
</g>
<defs>
<clipPath id="clip0_7428_9027">
<rect width="16" height="27" fill="white" transform="translate(11 5.5)"/>
</clipPath>
</defs>
</svg>
